<svg width="12" height="10" viewBox="0 0 12 10" fill="none" xmlns="http://www.w3.org/2000/svg" title="checkmark">
<path d="M3.29285 9.70705L0.292849 6.70705C0.200004 6.6142 0.126356 6.50398 0.0761089 6.38267C0.0258618 6.26136 1.95655e-09 6.13135 0 6.00005C-1.95655e-09 5.86874 0.0258618 5.73873 0.0761089 5.61742C0.126356 5.49611 0.200004 5.38589 0.292849 5.29305C0.385693 5.2002 0.495916 5.12655 0.617223 5.07631C0.738531 5.02606 0.868547 5.0002 0.999849 5.0002C1.13115 5.0002 1.26117 5.02606 1.38247 5.07631C1.50378 5.12655 1.614 5.2002 1.70685 5.29305L3.94285 7.52905L10.2408 0.349046C10.3262 0.249373 10.4304 0.167489 10.5474 0.108068C10.6644 0.0486474 10.7919 0.0128543 10.9228 0.00273271C11.0536 -0.00738888 11.1852 0.00835915 11.3099 0.0490775C11.4347 0.0897958 11.5502 0.154687 11.6498 0.240046C11.7495 0.325405 11.8314 0.429561 11.8908 0.546566C11.9502 0.663571 11.986 0.791134 11.9962 0.921972C12.0063 1.05281 11.9905 1.18436 11.9498 1.30911C11.9091 1.43386 11.8442 1.54937 11.7588 1.64905L4.75885 9.64905C4.66942 9.75383 4.5593 9.83901 4.4354 9.89924C4.3115 9.95947 4.1765 9.99345 4.03885 9.99905C3.90121 10.0034 3.76412 9.97979 3.63589 9.92959C3.50765 9.8794 3.39095 9.80369 3.29285 9.70705Z" fill="currentColor"/>
</svg>
