<svg width="8" height="8" viewBox="0 0 8 8" fill="none" xmlns="http://www.w3.org/2000/svg">
<path fill-rule="evenodd" clip-rule="evenodd" d="M4.70691 3.9997L7.8534 0.853377C7.94715 0.759628 7.99982 0.632478 7.99982 0.499897C7.99982 0.367316 7.94715 0.240165 7.8534 0.146416C7.75965 0.0526676 7.63249 0 7.4999 0C7.36731 0 7.24016 0.0526676 7.1464 0.146416L3.99991 3.29274L0.853422 0.146416C0.807 0.0999967 0.751889 0.0631747 0.691235 0.0380525C0.630582 0.0129303 0.565574 0 0.499923 0C0.434272 0 0.369264 0.0129303 0.308611 0.0380525C0.247957 0.0631747 0.192846 0.0999967 0.146424 0.146416C0.0526703 0.240165 0 0.367316 0 0.499897C0 0.632478 0.0526703 0.759628 0.146424 0.853377L3.29291 3.9997L0.146424 7.14603C0.0526703 7.23978 0 7.36693 0 7.49951C0 7.63209 0.0526703 7.75924 0.146424 7.85299C0.240178 7.94674 0.367335 7.99941 0.499923 7.99941C0.632511 7.99941 0.759668 7.94674 0.853422 7.85299L3.99991 4.70666L7.1464 7.85299C7.19273 7.89958 7.24781 7.93655 7.30848 7.96178C7.36914 7.98701 7.4342 8 7.4999 8C7.56561 8 7.63066 7.98701 7.69133 7.96178C7.75199 7.93655 7.80707 7.89958 7.8534 7.85299C7.89987 7.8066 7.93674 7.7515 7.9619 7.69085C7.98705 7.63019 8 7.56517 8 7.49951C8 7.43385 7.98705 7.36883 7.9619 7.30817C7.93674 7.24752 7.89987 7.19242 7.8534 7.14603L4.70691 3.9997Z" fill="currentColor"/>
</svg>

