<svg width="17" height="16" viewBox="0 0 17 16" fill="none" xmlns="http://www.w3.org/2000/svg">
<rect x="0.384521" width="15.6484" height="16" rx="4" fill="currentColor"/>
<path d="M6.89056 10.8954L4.40076 8.33214C4.33379 8.26213 4.29663 8.17059 4.29663 8.07559C4.29663 7.9806 4.33379 7.88906 4.40076 7.81904L4.90388 7.3067C4.9359 7.27347 4.97474 7.24695 5.01797 7.22882C5.0612 7.21068 5.10787 7.20132 5.15505 7.20132C5.20224 7.20132 5.24891 7.21068 5.29214 7.22882C5.33536 7.24695 5.37421 7.27347 5.40622 7.3067L7.14329 9.10179L11.0102 5.10578C11.0423 5.07243 11.0811 5.04582 11.1244 5.02761C11.1677 5.0094 11.2145 5 11.2618 5C11.3091 5 11.3558 5.0094 11.3991 5.02761C11.4424 5.04582 11.4813 5.07243 11.5134 5.10578L12.0165 5.61888C12.0836 5.68869 12.1208 5.78013 12.1208 5.87505C12.1208 5.96997 12.0836 6.06142 12.0165 6.13123L7.39212 10.8946C7.3601 10.9279 7.32126 10.9544 7.27803 10.9725C7.2348 10.9906 7.18813 11 7.14095 11C7.09376 11 7.04709 10.9906 7.00386 10.9725C6.96064 10.9544 6.92179 10.9279 6.88978 10.8946" fill="white"/>
</svg>
