<svg width="14" height="4" viewBox="0 0 14 4" fill="none" xmlns="http://www.w3.org/2000/svg">
<path d="M11.8001 0.4C12.6825 0.4 13.4001 1.1176 13.4001 2C13.4001 2.8824 12.6825 3.6 11.8001 3.6C10.9177 3.6 10.2001 2.8824 10.2001 2C10.2001 1.1176 10.9177 0.4 11.8001 0.4ZM7.0001 0.4C7.8825 0.4 8.6001 1.1176 8.6001 2C8.6001 2.8824 7.8825 3.6 7.0001 3.6C6.1177 3.6 5.4001 2.8824 5.4001 2C5.4001 1.1176 6.1177 0.4 7.0001 0.4ZM2.2001 0.4C3.0825 0.4 3.8001 1.1176 3.8001 2C3.8001 2.8824 3.0825 3.6 2.2001 3.6C1.3177 3.6 0.600098 2.8824 0.600098 2C0.600098 1.1176 1.3177 0.4 2.2001 0.4Z" fill="currentColor"/>
</svg>
