<svg width="16" height="16" viewBox="0 0 16 16" fill="none" xmlns="http://www.w3.org/2000/svg">
<path d="M6.39998 7.19999C7.0365 7.19999 7.64694 6.94714 8.09703 6.49705C8.54712 6.04696 8.79998 5.43651 8.79998 4.79999C8.79998 4.16347 8.54712 3.55303 8.09703 3.10294C7.64694 2.65285 7.0365 2.39999 6.39998 2.39999C5.76346 2.39999 5.15301 2.65285 4.70292 3.10294C4.25283 3.55303 3.99998 4.16347 3.99998 4.79999C3.99998 5.43651 4.25283 6.04696 4.70292 6.49705C5.15301 6.94714 5.76346 7.19999 6.39998 7.19999ZM6.39998 8.79999C7.67301 8.79999 8.89391 9.30571 9.79409 10.2059C10.6943 11.1061 11.2 12.327 11.2 13.6H1.59998C1.59998 12.327 2.10569 11.1061 3.00586 10.2059C3.90604 9.30571 5.12694 8.79999 6.39998 8.79999ZM12.8 5.59999C12.8 5.38782 12.7157 5.18434 12.5657 5.03431C12.4156 4.88428 12.2121 4.79999 12 4.79999C11.7878 4.79999 11.5843 4.88428 11.4343 5.03431C11.2843 5.18434 11.2 5.38782 11.2 5.59999V6.39999H10.4C10.1878 6.39999 9.98432 6.48428 9.83429 6.63431C9.68426 6.78434 9.59998 6.98782 9.59998 7.19999C9.59998 7.41217 9.68426 7.61565 9.83429 7.76568C9.98432 7.91571 10.1878 7.99999 10.4 7.99999H11.2V8.79999C11.2 9.01217 11.2843 9.21565 11.4343 9.36568C11.5843 9.51571 11.7878 9.59999 12 9.59999C12.2121 9.59999 12.4156 9.51571 12.5657 9.36568C12.7157 9.21565 12.8 9.01217 12.8 8.79999V7.99999H13.6C13.8121 7.99999 14.0156 7.91571 14.1657 7.76568C14.3157 7.61565 14.4 7.41217 14.4 7.19999C14.4 6.98782 14.3157 6.78434 14.1657 6.63431C14.0156 6.48428 13.8121 6.39999 13.6 6.39999H12.8V5.59999Z" fill="currentColor"/>
</svg>
